<?xml version="1.0" standalone="no"?>
<!DOCTYPE svg PUBLIC "-//W3C//DTD SVG 20010904//EN"
 "http://www.w3.org/TR/2001/REC-SVG-20010904/DTD/svg10.dtd">
<svg version="1.0" xmlns="http://www.w3.org/2000/svg"
 width="509.000000pt" height="600.000000pt" viewBox="0 0 509.000000 600.000000"
 preserveAspectRatio="xMidYMid meet">

<g transform="translate(0.000000,600.000000) scale(0.100000,-0.100000)"
fill="#000000" stroke="none">
<path d="M1850 4885 c0 -3 6 -16 14 -28 22 -33 49 -204 41 -257 -11 -71 -40
-128 -69 -136 -15 -3 -32 -1 -40 6 -23 19 -35 93 -24 152 12 60 -4 197 -27
238 -19 34 -18 19 4 -75 17 -68 18 -91 9 -152 -6 -40 -16 -80 -22 -89 -25 -33
-76 11 -76 65 0 40 -53 173 -80 203 l-29 32 -25 -29 c-14 -16 -24 -33 -23 -39
1 -5 -39 -15 -89 -22 -50 -7 -120 -20 -155 -29 -94 -24 -239 -84 -279 -115
-19 -15 -50 -35 -67 -46 -18 -10 -33 -22 -33 -27 0 -4 -4 -5 -10 -2 -5 3 -10
1 -10 -6 0 -7 -3 -10 -6 -6 -3 3 -15 -2 -26 -12 -19 -18 -19 -22 -4 -207 9
-104 19 -223 22 -264 5 -64 17 -120 26 -120 2 0 46 13 98 28 86 26 106 37 210
116 193 146 378 226 530 226 78 0 102 -8 98 -33 -2 -14 -12 -21 -33 -24 -63
-8 -72 -21 -27 -44 164 -82 269 -204 329 -378 23 -65 27 -93 27 -201 1 -144
-11 -204 -61 -308 -27 -56 -53 -89 -112 -144 -42 -39 -70 -68 -62 -63 9 5 12
3 9 -6 -3 -8 -15 -13 -29 -11 -19 2 -21 1 -9 -7 11 -8 12 -11 2 -11 -16 0 -36
-19 -45 -43 -4 -10 -15 -17 -24 -16 -40 4 -55 -1 -49 -16 4 -11 -2 -15 -28
-15 -24 0 -39 -7 -52 -25 -19 -25 -52 -36 -38 -12 4 6 -2 4 -13 -5 -11 -10
-24 -18 -30 -18 -20 0 -129 -83 -188 -143 -95 -97 -162 -192 -220 -312 -64
-132 -80 -179 -100 -292 -26 -150 -15 -378 28 -548 11 -46 18 -54 107 -122
l95 -73 55 4 c79 6 396 85 411 102 9 12 7 42 -11 147 -31 178 -38 407 -16 501
40 170 134 276 401 452 146 95 201 138 288 225 67 67 110 103 114 95 4 -6 20
-46 35 -89 15 -43 36 -92 47 -110 11 -18 27 -54 36 -82 10 -27 40 -97 67 -155
28 -58 68 -142 90 -188 56 -116 93 -106 105 29 5 47 1 66 -21 114 -14 32 -26
73 -26 92 0 40 -12 65 -50 110 -16 17 -33 47 -40 67 -6 20 -16 36 -22 36 -11
0 0 102 12 110 16 10 42 159 49 275 4 66 5 246 1 400 -4 178 -3 314 4 373 10
89 11 92 36 92 19 0 30 -9 44 -34 27 -51 86 -101 134 -115 24 -7 91 -18 150
-26 114 -15 146 -30 172 -81 8 -16 18 -31 21 -34 3 -3 18 -33 34 -67 16 -35
30 -61 32 -60 1 2 -6 36 -18 76 -11 41 -18 75 -16 77 2 2 34 -55 71 -126 63
-122 103 -182 72 -108 -37 89 -86 220 -86 232 0 7 -11 30 -25 50 -13 20 -21
36 -18 36 4 0 1 6 -6 13 -8 8 -45 12 -109 12 -89 0 -103 3 -169 34 -68 31 -75
38 -99 88 -14 30 -23 60 -20 66 3 7 5 8 5 1 1 -6 14 -9 30 -6 29 4 29 6 33 68
2 50 0 64 -12 68 -11 3 -10 4 3 5 10 0 25 7 33 15 16 17 19 66 4 66 -24 0 -8
38 20 50 39 16 49 33 19 29 -14 -2 -43 10 -68 26 -24 17 -64 41 -89 55 -56 31
-71 52 -53 74 19 23 36 20 150 -24 56 -22 105 -40 107 -40 3 0 14 21 24 46 22
49 35 67 62 77 25 9 44 -26 53 -97 6 -53 8 -57 22 -43 13 13 14 21 5 44 -6 15
-14 53 -18 83 -3 30 -10 65 -15 78 -6 15 -5 22 3 22 9 0 9 3 1 11 -13 13 -46
-4 -113 -58 l-45 -36 -90 7 c-140 9 -265 51 -265 88 0 10 -4 18 -9 18 -5 0
-12 9 -16 20 -8 26 -144 100 -186 101 -33 0 -87 17 -61 18 18 1 15 21 -3 21
-9 0 -18 -7 -21 -15 -4 -8 -16 -15 -29 -15 -39 0 -58 -33 -57 -97 1 -76 4 -93
13 -88 7 5 23 -25 20 -38 -2 -13 117 -128 182 -175 31 -24 57 -46 57 -51 0
-11 -34 -27 -104 -51 -64 -22 -96 -25 -96 -11 0 15 -179 198 -231 237 l-50 36
-25 -27 c-14 -15 -31 -24 -39 -21 -10 3 -20 -5 -30 -23 -32 -62 -80 -81 -108
-41 -14 20 -14 19 -25 -5 -18 -38 -55 -52 -87 -31 -29 19 -33 56 -9 101 30 58
14 266 -26 331 -20 32 -30 41 -30 29z m-863 -482 c-3 -10 -5 -4 -5 12 0 17 2
24 5 18 2 -7 2 -21 0 -30z m1350 -885 c-3 -8 -6 -5 -6 6 -1 11 2 17 5 13 3 -3
4 -12 1 -19z"/>
<path d="M2037 4725 c4 -33 8 -88 8 -123 -1 -48 1 -58 8 -40 12 31 2 197 -12
211 -9 9 -10 -3 -4 -48z"/>
<path d="M3090 2617 c0 -13 9 -32 20 -42 18 -17 20 -17 14 -2 -4 11 -1 17 9
17 17 0 27 -21 27 -59 0 -29 137 -248 148 -237 3 4 0 12 -6 18 -8 8 -12 49
-12 113 -1 113 -6 128 -67 179 -34 30 -49 36 -87 36 -42 0 -46 -2 -46 -23z"/>
<path d="M3165 1691 c-3 -10 -8 -54 -10 -97 -8 -126 -23 -265 -34 -319 -5 -27
-10 -74 -10 -103 -1 -50 1 -53 22 -50 12 2 25 8 29 13 5 6 8 6 8 -2 0 -12 11
-11 70 6 88 27 177 0 224 -68 25 -36 29 -52 34 -134 l5 -93 -29 -20 c-25 -16
-47 -19 -159 -19 -112 0 -135 3 -165 20 -42 24 -80 63 -80 81 0 8 -4 14 -10
14 -17 0 -11 -25 13 -60 12 -19 44 -45 72 -59 44 -23 61 -26 160 -25 179 0
220 30 220 163 -1 90 -26 145 -106 231 -27 29 -49 59 -49 66 0 26 54 144 64
141 26 -8 68 -119 92 -237 27 -136 63 -225 114 -284 l33 -37 -26 7 c-46 11
-30 -12 24 -36 63 -27 119 -37 119 -21 0 6 -15 17 -32 25 -43 18 -72 50 -109
122 -17 32 -46 86 -65 120 -19 33 -31 64 -27 67 3 4 1 24 -5 44 -7 21 -14 61
-16 88 -6 76 -33 155 -51 149 -8 -4 -18 1 -21 10 -3 9 -15 16 -26 16 -14 0
-18 5 -14 15 3 8 1 15 -5 15 -14 0 -18 4 -137 148 -57 67 -105 122 -107 122
-2 0 -6 -8 -10 -19z"/>
<path d="M1317 1366 c-42 -15 -56 -25 -110 -75 -60 -55 -89 -122 -95 -213 -5
-91 14 -140 86 -221 40 -46 43 -51 25 -58 -37 -13 -46 -34 -29 -67 17 -33 85
-91 129 -110 60 -26 272 -7 397 36 47 16 55 23 55 44 1 14 15 47 33 73 67 102
82 240 36 333 -32 65 -63 91 -174 147 -49 24 -107 55 -129 69 -22 15 -45 26
-51 26 -6 0 -8 4 -5 10 3 6 -1 7 -9 4 -9 -3 -16 -1 -16 5 0 15 -96 13 -143 -3z"/>
</g>
</svg>
