<?xml version="1.0" standalone="no"?>
<!DOCTYPE svg PUBLIC "-//W3C//DTD SVG 20010904//EN"
 "http://www.w3.org/TR/2001/REC-SVG-20010904/DTD/svg10.dtd">
<svg version="1.0" xmlns="http://www.w3.org/2000/svg"
 width="567.000000pt" height="604.000000pt" viewBox="0 0 567.000000 604.000000"
 preserveAspectRatio="xMidYMid meet">

<g transform="translate(0.000000,604.000000) scale(0.100000,-0.100000)"
fill="#000000" stroke="none">
<path d="M1072 5963 c-4 -10 -7 -124 -7 -253 l0 -235 125 -3 c106 -2 130 0
160 16 38 21 80 83 80 121 0 29 -38 111 -51 111 -5 0 2 17 16 37 44 65 29 150
-34 198 -22 17 -45 20 -154 23 -115 3 -128 2 -135 -15z m263 -70 c32 -35 32
-76 0 -108 -22 -23 -32 -25 -115 -25 l-90 0 0 80 0 80 90 0 c84 0 91 -1 115
-27z m2 -225 c30 -28 32 -87 2 -114 -16 -14 -40 -19 -115 -22 l-94 -4 0 81 0
81 92 0 c80 0 95 -3 115 -22z"/>
<path d="M2260 5864 c0 -107 -1 -116 -17 -109 -87 36 -170 9 -209 -67 -20 -39
-17 -105 6 -144 22 -34 90 -74 128 -74 13 0 38 7 57 14 31 13 35 13 35 0 0 -9
10 -14 30 -14 l30 0 0 255 0 255 -30 0 -30 0 0 -116z m-49 -164 c27 -15 52
-68 45 -96 -10 -40 -42 -64 -84 -64 -49 0 -81 27 -89 74 -5 30 -1 40 25 66 32
31 68 38 103 20z"/>
<path d="M4070 5855 l0 -85 -40 0 c-38 0 -40 -2 -40 -30 0 -28 2 -30 40 -30
l40 0 0 -120 0 -120 30 0 30 0 0 120 0 120 40 0 c38 0 40 2 40 30 0 28 -2 30
-40 30 l-40 0 0 85 0 85 -30 0 -30 0 0 -85z"/>
<path d="M1506 5889 c-17 -24 -12 -45 14 -59 38 -21 72 19 50 60 -14 26 -45
26 -64 -1z"/>
<path d="M2402 5898 c-34 -34 6 -90 48 -68 35 19 20 80 -20 80 -9 0 -21 -5
-28 -12z"/>
<path d="M3852 5898 c-34 -34 6 -90 48 -68 35 19 20 80 -20 80 -9 0 -21 -5
-28 -12z"/>
<path d="M1510 5620 l0 -150 30 0 30 0 0 150 0 150 -30 0 -30 0 0 -150z"/>
<path d="M1730 5752 c-78 -39 -103 -135 -56 -211 44 -69 126 -89 198 -49 71
40 97 127 59 198 -39 74 -125 101 -201 62z m104 -52 c15 -5 34 -25 43 -44 14
-30 14 -39 3 -67 -23 -54 -97 -71 -142 -31 -27 23 -33 77 -14 108 26 39 65 51
110 34z"/>
<path d="M2400 5620 l0 -150 30 0 30 0 0 150 0 150 -30 0 -30 0 0 -150z"/>
<path d="M2596 5625 c30 -80 54 -148 54 -151 0 -2 17 -4 38 -4 l39 0 51 133
c28 72 54 140 58 150 5 14 0 17 -29 17 l-34 0 -38 -100 c-21 -55 -40 -100 -44
-100 -3 0 -22 44 -42 98 -35 96 -36 97 -71 100 l-36 3 54 -146z"/>
<path d="M2950 5752 c-97 -49 -108 -189 -19 -253 48 -34 131 -34 176 0 42 32
46 46 17 61 -20 11 -27 11 -41 -2 -39 -34 -112 -26 -134 13 -9 18 -4 19 106
19 l115 0 0 38 c0 104 -122 174 -220 124z m132 -68 c28 -26 12 -34 -68 -34
-72 0 -74 1 -64 21 22 40 93 47 132 13z"/>
<path d="M3240 5620 l0 -150 30 0 30 0 0 79 c0 44 4 91 10 105 18 48 95 67
136 34 7 -5 20 -1 35 12 l24 20 -23 20 c-31 26 -87 35 -137 22 -24 -6 -41 -7
-43 -1 -2 5 -17 9 -33 9 l-29 0 0 -150z"/>
<path d="M3599 5759 c-50 -18 -66 -100 -26 -137 12 -11 44 -24 72 -29 41 -7
51 -12 53 -31 2 -15 -2 -22 -15 -24 -37 -3 -67 4 -77 18 -14 18 -56 7 -56 -15
0 -32 46 -64 97 -68 87 -7 136 44 114 117 -9 31 -19 41 -51 54 -22 9 -54 16
-70 16 -23 0 -30 4 -30 20 0 17 7 20 45 20 33 0 45 -4 45 -15 0 -10 10 -15 30
-15 25 0 30 4 30 23 -1 59 -86 94 -161 66z"/>
<path d="M3850 5620 l0 -150 30 0 30 0 0 150 0 150 -30 0 -30 0 0 -150z"/>
<path d="M4298 5743 c36 -51 162 -264 162 -273 0 -5 -15 -43 -34 -84 l-35 -76
35 0 c32 0 36 4 60 58 14 31 32 71 39 87 7 17 32 73 55 125 23 52 50 114 61
137 10 23 19 44 19 47 0 4 -15 6 -33 6 -33 0 -34 -2 -81 -110 -26 -60 -49
-110 -50 -110 -2 0 -34 49 -72 110 -68 109 -69 110 -107 110 l-38 0 19 -27z"/>
<path d="M2542 5280 c2 -16 0 -31 -6 -34 -6 -2 -2 -11 9 -20 25 -19 41 -21 26
-2 -7 8 -11 20 -10 28 4 31 -2 58 -12 58 -7 0 -10 -12 -7 -30z"/>
<path d="M2410 5256 c0 -20 5 -36 10 -36 6 0 10 13 10 29 0 17 -4 33 -10 36
-6 4 -10 -8 -10 -29z"/>
<path d="M2605 5281 c-10 -17 11 -21 31 -6 18 14 18 14 -3 15 -12 0 -24 -4
-28 -9z"/>
<path d="M3233 5273 c-9 -3 -13 -33 -13 -99 0 -81 3 -97 20 -114 24 -24 25
-33 4 -51 -20 -16 -12 -64 22 -124 34 -62 31 -88 -17 -140 -35 -38 -38 -45
-21 -45 21 0 103 88 162 174 26 39 35 47 38 33 3 -14 10 -17 27 -13 22 6 23 3
28 -52 8 -97 26 -205 37 -216 21 -21 9 -29 -32 -21 -54 10 -186 10 -257 0
l-53 -8 31 -13 c18 -8 38 -13 44 -11 7 1 11 -5 10 -13 -2 -12 9 -15 50 -16 51
-1 72 -13 45 -25 -7 -4 -35 -12 -63 -18 -64 -15 -199 -78 -222 -103 -17 -19
-17 -20 20 -17 24 2 41 -1 46 -10 6 -9 11 -10 15 -2 4 6 17 11 30 11 12 0 28
6 34 12 10 10 15 10 21 -1 7 -10 14 -10 40 4 35 17 72 17 78 -1 2 -7 -15 -26
-39 -43 -71 -53 -129 -137 -173 -256 -23 -61 -23 -63 -4 -58 11 3 24 14 29 24
6 10 17 16 25 13 10 -4 15 0 15 10 0 9 7 19 15 22 8 4 15 17 15 30 0 25 24 34
33 12 3 -7 6 -3 6 8 1 21 48 84 63 84 18 0 28 -41 19 -78 -5 -20 -12 -66 -16
-102 l-6 -65 39 45 c24 27 37 51 34 62 -2 10 0 18 6 18 6 0 13 13 17 29 6 27
45 75 45 55 0 -5 7 1 15 13 9 13 22 20 30 16 9 -3 21 0 29 6 11 9 15 6 20 -14
4 -14 10 -24 15 -21 4 3 18 -2 31 -11 21 -15 22 -21 17 -102 -9 -161 -67 -345
-177 -563 l-60 -118 99 0 99 0 54 68 c66 83 89 114 165 222 32 47 76 109 96
137 20 29 37 55 37 57 0 8 73 130 88 148 18 22 32 14 32 -18 0 -14 4 -22 10
-19 17 11 22 -40 7 -83 -14 -41 -14 -42 5 -36 18 5 19 4 5 -18 -18 -29 -30
-88 -17 -88 5 0 8 -13 8 -29 -2 -57 14 -55 43 8 39 84 61 173 63 253 0 38 4
68 7 68 13 0 31 -29 24 -40 -3 -5 -1 -10 5 -10 6 0 8 -10 4 -25 -5 -18 -2 -25
9 -25 11 0 17 -15 22 -50 4 -32 12 -50 20 -50 8 0 17 -9 20 -20 3 -11 10 -20
15 -20 26 0 26 119 -1 215 -33 117 -33 115 -16 115 8 0 17 -6 20 -12 3 -10 7
-10 18 -1 12 10 21 8 47 -10 18 -12 35 -32 38 -45 5 -18 9 -20 20 -11 11 9 15
7 21 -7 9 -23 43 -53 61 -54 7 0 20 -7 28 -15 17 -16 34 -20 34 -7 0 31 -74
138 -141 203 -75 74 -77 78 -59 94 12 11 20 13 25 6 11 -18 23 -12 18 8 -5 19
-3 19 53 6 31 -7 63 -11 71 -8 7 3 19 1 26 -5 16 -13 66 -21 72 -12 3 4 23 6
46 5 50 -3 40 9 -41 51 -89 45 -114 74 -66 74 13 0 26 7 30 15 8 21 -31 29
-144 29 -95 0 -164 -15 -229 -48 -31 -17 -32 -16 -61 16 -31 34 -37 48 -20 48
6 0 15 11 20 25 5 14 14 25 20 25 5 0 10 9 10 19 0 27 37 51 79 51 27 0 32 3
23 12 -17 17 -15 28 6 28 27 0 72 23 72 37 0 6 9 14 19 18 11 3 22 12 25 20 8
21 -34 19 -128 -5 -118 -30 -200 -81 -255 -158 -26 -37 -31 -38 -77 -16 -38
18 -40 36 -4 44 13 3 25 11 27 17 6 18 -76 26 -204 21 -112 -5 -114 -5 -94 13
11 11 27 19 35 19 8 0 18 5 21 10 3 6 1 10 -5 10 -6 0 -8 5 -5 10 3 6 17 10
31 10 13 0 24 4 24 10 0 5 11 12 25 16 19 5 23 9 15 19 -8 10 -3 15 19 23 16
6 39 8 50 5 20 -5 81 30 81 47 0 5 -10 12 -22 16 l-23 7 23 8 c30 11 28 24
-11 48 -34 21 -77 19 -77 -4 0 -7 -7 -18 -15 -25 -9 -7 -14 -24 -13 -39 3 -23
-2 -27 -42 -39 -78 -23 -180 -75 -223 -114 -22 -21 -44 -38 -48 -38 -19 0 -26
78 -9 110 5 10 34 32 64 49 60 34 80 60 73 97 -3 18 0 24 13 24 22 0 70 37 70
54 0 7 16 35 35 62 44 62 44 79 0 94 -51 17 -103 5 -197 -46 -50 -27 -88 -42
-98 -38 -8 4 -20 6 -26 6 -6 -1 -35 38 -64 87 -38 64 -63 95 -89 109 -43 24
-72 32 -88 25z m667 -809 c0 -8 -5 -12 -10 -9 -6 4 -8 11 -5 16 9 14 15 11 15
-7z m90 -29 c7 -9 10 -18 7 -21 -9 -9 -48 16 -42 27 9 13 21 11 35 -6z m-150
-140 c0 -8 -4 -15 -9 -15 -13 0 -22 16 -14 24 11 11 23 6 23 -9z m30 -196 c8
-13 9 -47 4 -97 -6 -71 -6 -76 10 -63 26 22 32 3 8 -29 -12 -16 -22 -33 -22
-37 0 -15 -95 -150 -136 -194 -71 -77 -185 -172 -194 -163 -5 5 -3 26 5 49 7
22 32 103 55 180 63 210 62 209 82 227 10 9 18 21 18 27 0 6 3 11 8 11 14 0
42 -40 42 -59 0 -14 5 -18 20 -14 15 4 20 0 20 -15 0 -11 7 -26 16 -33 16 -13
17 -4 12 106 -5 121 -5 121 18 123 15 1 28 -6 34 -19z"/>
<path d="M2462 5248 c-14 -14 -16 -28 -3 -28 9 0 24 30 18 36 -2 2 -9 -2 -15
-8z"/>
<path d="M2215 5228 c4 -13 16 -31 28 -42 22 -18 22 -18 25 4 4 24 -23 60 -45
60 -10 0 -12 -7 -8 -22z"/>
<path d="M2306 5235 c-11 -29 -7 -67 7 -63 15 6 21 43 9 64 -8 15 -10 15 -16
-1z"/>
<path d="M2731 5238 c0 -10 -5 -18 -11 -18 -5 0 -10 -7 -10 -15 0 -9 -7 -18
-16 -22 -12 -4 -14 -14 -9 -39 6 -35 -2 -43 -24 -21 -11 10 -12 8 -6 -10 5
-17 2 -23 -9 -23 -20 0 -21 -16 -1 -24 18 -6 20 -36 3 -36 -6 0 -3 -10 8 -22
19 -21 19 -21 -3 -16 -12 3 -24 1 -26 -5 -6 -18 18 -124 31 -140 8 -9 11 -21
7 -26 -11 -19 18 -93 40 -103 12 -5 29 -24 39 -42 16 -30 16 -43 5 -154 -13
-127 -5 -200 28 -265 14 -28 33 -29 33 -1 0 8 8 18 18 21 9 4 23 13 30 20 7 7
25 13 39 13 20 0 24 4 20 18 -38 117 -46 157 -31 168 8 7 12 19 8 28 -4 10 -1
16 9 16 8 0 17 -6 20 -14 7 -18 47 -28 47 -11 0 8 12 23 26 34 31 25 26 51
-11 51 -33 0 -33 29 0 60 20 19 32 22 70 18 l45 -6 0 38 c0 20 7 52 16 69 24
48 44 282 30 346 -9 39 -16 50 -31 50 -16 0 -21 -10 -28 -55 -4 -30 -26 -93
-48 -140 -23 -47 -43 -100 -46 -118 -6 -35 -31 -52 -78 -52 -19 0 -26 8 -34
38 -6 20 -11 42 -11 48 0 5 -14 32 -30 58 -34 53 -55 125 -66 226 -4 36 -9 59
-11 53 -7 -19 -21 -16 -26 5 -4 16 -5 16 -6 0z"/>
<path d="M2430 5190 c0 -19 3 -21 12 -12 9 9 9 15 0 24 -9 9 -12 7 -12 -12z"/>
<path d="M2479 5172 c-28 -23 -11 -37 19 -16 22 15 29 34 13 34 -5 0 -19 -8
-32 -18z"/>
<path d="M2177 5163 c-13 -12 15 -33 44 -33 33 0 38 15 10 30 -22 11 -45 13
-54 3z"/>
<path d="M2280 5125 c0 -8 5 -15 10 -15 6 0 10 7 10 15 0 8 -4 15 -10 15 -5 0
-10 -7 -10 -15z"/>
<path d="M2518 5132 c-10 -2 -18 -8 -18 -13 0 -12 46 -23 66 -15 31 12 -10 36
-48 28z"/>
<path d="M2435 5120 c-3 -5 1 -10 9 -10 8 0 18 5 21 10 3 6 -1 10 -9 10 -8 0
-18 -4 -21 -10z"/>
<path d="M2476 5081 c-7 -10 44 -55 52 -47 2 3 2 12 -1 20 -8 20 -44 39 -51
27z"/>
<path d="M2130 5060 c0 -30 29 -70 51 -70 11 0 19 7 19 16 0 12 5 10 19 -7
l19 -24 7 25 c7 28 -9 80 -24 80 -5 0 -12 -12 -15 -26 l-7 -27 -28 27 c-33 31
-41 33 -41 6z"/>
<path d="M2377 5042 c-18 -20 -17 -83 3 -107 17 -21 50 -38 50 -27 0 5 -10 20
-22 34 -29 31 -33 53 -13 80 26 38 13 54 -18 20z"/>
<path d="M2434 5006 c-10 -8 -16 -18 -11 -22 10 -10 59 8 65 24 5 17 -30 15
-54 -2z"/>
<path d="M4010 4995 c-19 -14 -38 -32 -43 -40 -9 -17 16 -61 45 -76 16 -9 20
-7 25 11 l6 21 14 -21 c15 -21 16 -21 35 -3 11 10 24 26 29 36 12 22 3 57 -15
57 -7 0 -21 9 -31 20 -23 25 -24 25 -65 -5z"/>
<path d="M2120 4962 c0 -10 45 -32 65 -32 21 0 18 17 -4 30 -24 12 -61 13 -61
2z"/>
<path d="M2225 4951 c-3 -5 -1 -12 5 -16 5 -3 10 1 10 9 0 18 -6 21 -15 7z"/>
<path d="M4128 4902 c-31 -18 -38 -52 -11 -52 16 0 15 -1 -1 -13 -21 -15 -13
-40 18 -57 32 -17 57 -6 83 35 18 28 19 37 9 48 -7 7 -18 22 -25 35 -14 26
-36 28 -73 4z"/>
<path d="M1751 4888 c-7 -12 -16 -48 -19 -80 -4 -54 -3 -61 23 -88 19 -20 42
-31 71 -36 47 -7 115 5 121 22 3 10 -52 34 -80 34 -24 0 -22 6 16 50 38 45 63
88 55 95 -12 12 -57 -8 -89 -40 -42 -42 -49 -43 -49 -4 0 31 -15 69 -28 69 -4
0 -13 -10 -21 -22z"/>
<path d="M1616 4867 c-7 -29 8 -128 25 -159 7 -13 30 -40 51 -61 22 -21 37
-41 35 -44 -3 -2 -21 0 -40 5 -24 7 -39 6 -46 -1 -6 -6 -11 -9 -12 -6 0 2 -3
17 -5 33 -15 93 -164 242 -164 165 0 -57 106 -209 145 -209 8 0 19 -9 25 -21
6 -11 26 -29 43 -39 36 -22 31 -24 -22 -10 -20 5 -48 12 -63 15 -16 3 -28 12
-28 20 0 15 -58 96 -90 127 -26 24 -82 58 -97 58 -25 0 -12 -47 32 -112 44
-66 90 -108 119 -108 8 0 27 -15 41 -34 30 -40 128 -76 206 -76 62 0 61 11 -4
60 -50 37 -48 49 5 31 41 -14 105 -14 114 1 4 7 -8 25 -32 45 l-39 34 49 -7
c35 -5 50 -3 57 7 16 27 -31 56 -142 88 l-64 18 -6 45 c-8 51 -43 138 -62 150
-19 12 -24 10 -31 -15z"/>
<path d="M2310 4860 c-9 -17 -8 -20 8 -20 10 0 27 9 37 20 18 20 17 20 -8 20
-16 0 -30 -8 -37 -20z"/>
<path d="M2332 4821 c-13 -3 -24 -10 -25 -16 -3 -13 83 -19 95 -7 13 13 -40
30 -70 23z"/>
<path d="M3980 4780 c-27 -38 -22 -52 29 -86 l40 -26 41 32 c47 37 49 51 15
88 -22 23 -28 25 -45 14 -12 -7 -20 -8 -20 -2 0 22 -40 8 -60 -20z"/>
<path d="M2494 4776 c-3 -14 -3 -29 0 -34 3 -5 -1 -15 -9 -22 -14 -11 -14 -16
1 -38 16 -24 16 -26 -2 -39 -10 -7 -26 -13 -36 -13 -38 0 -13 -33 35 -45 38
-10 34 -33 -8 -41 -57 -10 -40 -37 33 -49 45 -7 58 -33 22 -42 -49 -13 5 -42
65 -35 60 7 101 41 102 87 1 27 -2 35 -13 31 -19 -7 -18 13 2 35 8 9 14 29 12
44 l-3 27 -28 -22 c-31 -25 -48 -19 -29 10 7 11 12 31 12 45 0 25 -1 25 -25 9
-28 -18 -45 -12 -45 18 0 11 -8 22 -19 25 -11 3 -25 18 -31 34 -17 40 -28 45
-36 15z"/>
<path d="M2109 4688 c-6 -20 -6 -39 1 -43 4 -3 10 6 12 20 3 14 1 25 -3 25 -5
0 -9 -1 -10 -2z"/>
<path d="M2185 4624 c-19 -15 -22 -21 -9 -15 18 9 52 41 43 41 -2 0 -17 -12
-34 -26z"/>
<path d="M2233 4603 c-18 -19 -33 -38 -33 -43 0 -19 -27 -10 -38 13 l-11 22 0
-23 c-1 -13 -7 -22 -13 -21 -31 4 -39 -2 -33 -21 8 -25 -6 -25 -47 0 -58 35
-81 26 -120 -45 -9 -16 -20 -48 -24 -70 l-7 -40 24 30 c13 17 32 47 43 67 25
49 42 54 63 18 9 -17 21 -30 25 -30 4 0 8 -24 8 -53 0 -46 6 -62 38 -108 29
-41 47 -57 81 -69 25 -8 47 -22 49 -30 3 -8 13 -23 24 -34 35 -38 24 -45 -84
-52 -46 -3 -87 -6 -93 -6 -5 0 -18 3 -27 7 -10 4 -18 3 -18 -2 0 -15 95 -33
175 -33 94 0 102 9 89 91 -6 33 -7 62 -3 65 5 2 19 -12 33 -33 25 -37 26 -37
26 -11 0 15 -4 30 -10 33 -20 13 -9 25 18 19 15 -3 22 -2 17 3 -17 13 -56 85
-50 91 3 3 16 0 29 -8 30 -15 72 -6 80 17 3 10 11 26 18 36 16 22 0 51 -31 55
-19 3 -21 0 -16 -21 11 -43 -10 -67 -55 -64 -24 1 -40 7 -40 15 0 6 -4 12 -10
12 -5 0 -10 6 -10 13 0 7 -14 30 -32 51 -20 24 -33 52 -35 77 -3 32 0 41 23
55 21 15 29 15 46 5 24 -15 32 -9 24 17 -4 11 -19 24 -34 29 -23 8 -31 5 -59
-24z"/>
<path d="M1264 4565 c-4 -8 1 -26 10 -40 l16 -25 -35 0 c-22 0 -35 -5 -35 -13
0 -14 41 -57 54 -57 4 0 20 -8 34 -19 15 -10 47 -25 72 -33 39 -12 49 -21 75
-70 48 -89 85 -137 108 -138 14 0 7 68 -13 114 -12 25 -36 61 -55 79 -26 26
-32 36 -23 45 18 18 24 15 46 -21 10 -18 47 -54 81 -80 142 -107 150 -16 9
100 -28 23 -63 43 -77 45 -14 2 -30 13 -37 25 -13 27 -82 66 -155 87 -65 20
-68 20 -75 1z"/>
<path d="M1301 4334 c-58 -14 -77 -26 -66 -44 5 -8 31 -11 79 -8 l71 3 6 -54
c8 -59 33 -98 45 -67 13 35 -2 125 -25 150 -30 32 -46 35 -110 20z"/>
<path d="M2446 4294 c-18 -26 -18 -26 3 -15 11 7 21 18 21 26 0 20 -2 19 -24
-11z"/>
<path d="M2941 4228 c-5 -13 -12 -31 -15 -40 -3 -11 -12 -15 -25 -11 -27 7
-91 -5 -91 -17 0 -6 7 -10 15 -10 28 0 75 -30 75 -48 0 -9 -9 -32 -20 -50 -24
-40 -25 -42 -2 -42 10 0 33 13 52 28 l34 29 34 -20 c19 -11 36 -26 39 -34 3
-7 9 -13 14 -13 16 0 10 31 -13 73 -13 22 -19 42 -13 44 23 8 75 43 75 51 0 5
-25 7 -56 4 -62 -5 -74 3 -74 51 0 33 -17 36 -29 5z"/>
<path d="M1144 4205 c-41 -17 -86 -79 -107 -146 -30 -100 -19 -123 43 -85 81
48 130 118 130 185 0 50 -21 65 -66 46z"/>
<path d="M1275 4199 c-11 -17 1 -21 15 -4 8 9 8 15 2 15 -6 0 -14 -5 -17 -11z"/>
<path d="M2390 4183 c0 -13 68 -34 75 -23 3 4 -5 10 -18 13 -12 2 -30 8 -39
12 -10 4 -18 3 -18 -2z"/>
<path d="M4729 4153 c-1 -5 0 -12 1 -18 2 -5 5 -37 7 -69 3 -33 11 -69 19 -80
8 -11 14 -26 14 -32 0 -11 85 -104 95 -104 3 0 5 30 4 68 0 48 -6 75 -20 97
-10 17 -22 37 -26 46 -9 19 -80 99 -88 99 -3 0 -6 -3 -6 -7z"/>
<path d="M2665 4103 c-60 -11 -105 -38 -160 -96 -34 -34 -68 -73 -77 -87 -14
-20 -19 -22 -26 -11 -8 11 -11 9 -17 -8 -6 -20 -9 -19 -53 20 -66 59 -158 99
-226 99 -69 0 -84 -15 -67 -70 12 -40 85 -118 124 -133 12 -5 32 -4 45 2 35
16 35 14 6 -25 -23 -29 -26 -40 -18 -62 20 -57 121 -93 158 -57 8 9 18 31 22
50 8 42 21 45 31 8 l7 -28 6 29 c7 43 22 41 43 -4 17 -37 22 -40 57 -40 44 0
77 25 103 77 21 40 15 57 -28 77 -47 23 -56 40 -16 31 43 -9 72 11 110 78 51
89 39 161 -24 150z"/>
<path d="M3502 3988 c-8 -18 -35 -78 -62 -133 -48 -100 -100 -243 -100 -274 0
-9 5 -23 10 -31 9 -12 16 -8 45 24 19 22 35 47 35 56 0 9 4 20 8 25 5 6 19 44
31 85 13 41 26 85 31 96 9 23 25 184 19 184 -2 0 -10 -15 -17 -32z"/>
<path d="M2757 3862 c-20 -42 -37 -86 -37 -97 0 -11 11 -38 25 -60 27 -44 34
-125 13 -143 -7 -5 -46 -20 -87 -32 -66 -20 -79 -21 -127 -11 -38 9 -68 25
-100 52 -51 44 -83 49 -129 19 -16 -11 -43 -20 -60 -20 -16 -1 -41 -7 -54 -14
-23 -13 -19 -14 50 -19 110 -8 167 -22 245 -57 106 -48 104 -48 179 -76 113
-42 165 -54 237 -54 36 0 78 -4 92 -10 14 -5 68 -14 119 -19 68 -7 109 -17
145 -35 28 -14 59 -26 69 -26 26 1 -32 47 -77 62 -19 6 -45 18 -57 27 -23 16
-31 55 -14 66 24 14 43 73 42 130 -1 33 3 66 8 74 5 8 4 27 -2 47 -8 25 -6 45
7 87 20 63 14 89 -19 81 -14 -3 -28 1 -39 11 -12 13 -26 15 -51 11 -27 -5 -35
-4 -35 8 0 8 6 17 13 19 6 3 -13 6 -44 6 -43 1 -58 5 -63 17 -6 15 -9 15 -29
-4 -12 -11 -35 -24 -51 -28 -25 -6 -28 -5 -22 13 6 20 5 20 -40 -3 -67 -34
-76 -32 -68 16 4 22 5 40 3 40 -2 -1 -21 -36 -42 -78z"/>
<path d="M1710 3591 c0 -4 -29 -38 -65 -75 -36 -37 -65 -72 -65 -80 0 -16 22
-35 72 -64 38 -21 45 -21 126 9 34 13 29 59 -13 120 -19 28 -35 62 -35 75 0
13 -4 24 -10 24 -5 0 -10 -4 -10 -9z"/>
<path d="M1343 3468 c-25 -33 -63 -140 -63 -176 0 -32 6 -45 26 -61 31 -25 80
-19 108 12 22 27 17 84 -15 155 -32 70 -44 85 -56 70z"/>
<path d="M2080 3356 c-5 -15 -17 -29 -27 -33 -24 -9 -51 -38 -55 -59 -2 -10
-17 -21 -35 -26 -41 -11 -49 -25 -28 -48 9 -10 14 -24 10 -29 -3 -6 -1 -11 4
-11 6 0 11 -9 11 -20 0 -24 -18 -27 -27 -4 -6 15 -7 15 -19 0 -10 -14 -15 -15
-32 -5 -14 9 -29 10 -53 3 -29 -8 -33 -14 -34 -46 -1 -24 2 -35 9 -31 6 3 5 0
-1 -8 -18 -18 -16 -29 5 -29 10 0 28 -11 40 -25 26 -30 27 -35 7 -35 -8 0 -15
4 -15 9 0 10 -7 9 -53 -4 -24 -6 -27 -11 -22 -35 4 -18 1 -33 -9 -43 -17 -17
-11 -27 18 -28 12 0 15 -3 9 -6 -7 -2 -13 -19 -13 -37 0 -39 -25 -76 -51 -76
-22 0 -23 -3 -7 -47 14 -39 20 -41 37 -9 11 21 19 23 52 19 24 -4 45 -1 54 7
13 10 19 10 33 -4 23 -20 32 -20 32 -2 0 12 29 26 65 31 6 1 18 6 29 10 14 6
23 2 37 -16 14 -18 19 -20 19 -8 0 9 7 19 15 23 8 3 15 15 15 26 0 13 7 20 20
20 12 0 20 -7 20 -16 0 -10 6 -14 15 -10 8 3 15 0 15 -7 0 -9 2 -9 8 1 5 7 16
10 25 6 19 -7 22 -20 7 -29 -5 -3 -10 -17 -10 -31 0 -15 -6 -24 -15 -24 -8 0
-15 6 -15 14 0 16 -28 41 -37 33 -3 -4 -1 -13 5 -20 9 -11 6 -19 -12 -36 -24
-23 -25 -23 -37 -4 -8 13 -20 18 -34 15 -14 -2 -31 4 -44 17 -14 14 -22 17
-27 9 -4 -7 -2 -14 4 -16 7 -2 10 -7 7 -12 -3 -4 11 -11 30 -14 45 -9 45 -32
0 -40 -37 -7 -58 -26 -27 -26 10 0 28 -9 39 -19 11 -11 35 -21 52 -23 22 -3
36 -12 44 -28 7 -14 18 -26 25 -26 7 -1 17 -2 22 -3 17 -2 11 -21 -6 -21 -13
0 -14 -3 -5 -14 9 -10 9 -20 2 -34 -5 -10 -7 -29 -4 -42 6 -22 4 -23 -30 -17
-25 4 -39 1 -48 -9 -18 -22 -47 -17 -51 9 -2 14 -11 23 -26 25 -16 3 -25 12
-29 33 -5 27 -7 28 -23 14 -9 -8 -25 -15 -34 -15 -10 0 -20 -9 -23 -20 -3 -11
-10 -20 -17 -20 -6 0 -16 -10 -21 -22 -14 -31 -45 -36 -52 -9 -4 14 -11 20
-22 17 -18 -6 -45 11 -54 34 -4 12 -6 11 -6 -2 -1 -13 -9 -18 -32 -18 -26 0
-31 -3 -26 -20 3 -11 -2 -27 -10 -36 -16 -15 -11 -29 10 -29 7 0 13 -10 15
-22 4 -27 17 -30 27 -6 6 16 8 15 25 -7 11 -14 20 -19 20 -12 0 14 70 17 70 2
0 -5 7 -10 15 -10 8 0 14 6 12 13 -1 7 9 12 28 12 25 0 30 -4 28 -22 -3 -27 5
-29 23 -5 12 15 15 15 23 2 6 -9 6 -19 1 -24 -4 -4 -6 -15 -3 -24 4 -8 -1 -21
-11 -28 -15 -10 -16 -16 -6 -35 11 -20 10 -21 -9 -16 -11 3 -21 0 -21 -5 0
-18 33 -37 63 -38 15 0 27 -5 27 -11 0 -8 15 -9 48 -4 68 10 114 8 123 -6 10
-17 2 -29 -19 -29 -9 0 -24 -5 -32 -10 -13 -8 -12 -11 4 -23 11 -8 16 -19 13
-24 -9 -14 35 -25 60 -16 10 3 26 13 35 21 16 13 18 13 24 -1 3 -9 11 -14 17
-12 7 2 32 6 56 10 38 5 42 4 32 -9 -21 -25 5 -26 29 -1 13 14 31 25 41 25 28
0 30 38 2 71 -16 19 -23 37 -20 50 4 15 0 23 -14 26 -10 3 -19 9 -19 13 0 4
-11 5 -25 2 -37 -7 -36 35 1 44 19 5 23 9 12 16 -10 7 -10 10 5 19 9 5 17 17
17 24 0 8 5 15 11 15 6 0 8 -7 5 -16 -5 -13 1 -15 30 -12 25 2 40 -3 49 -15
15 -21 25 -22 25 -2 0 8 -9 19 -20 25 -11 6 -20 17 -20 25 0 8 -9 24 -20 35
-16 16 -20 17 -20 5 0 -17 -16 -20 -25 -4 -8 11 22 38 43 39 8 0 28 -10 45
-22 17 -13 36 -23 42 -23 5 0 38 -17 73 -38 50 -31 62 -43 62 -64 0 -20 -4
-24 -20 -20 -11 3 -23 1 -26 -4 -3 -5 6 -9 19 -9 31 0 46 -19 68 -80 13 -38
14 -51 5 -59 -7 -6 -17 -6 -26 -1 -19 12 -30 12 -30 1 0 -5 19 -18 43 -29 36
-17 45 -28 65 -79 25 -67 27 -83 10 -83 -7 -1 -3 -7 10 -14 14 -7 34 -38 49
-72 14 -32 49 -108 79 -169 55 -114 62 -138 71 -242 3 -42 1 -63 -6 -63 -6 0
-11 6 -11 13 0 8 -20 39 -45 71 -24 31 -47 67 -51 79 -4 12 -20 39 -36 60 -16
20 -42 63 -58 95 -15 32 -35 63 -43 71 -9 7 -19 27 -22 44 -4 18 -15 59 -25
92 -11 33 -24 80 -31 104 -8 33 -13 41 -19 30 -5 -9 3 -48 21 -103 31 -91 32
-109 3 -85 -16 13 -124 135 -167 188 -10 13 -21 20 -24 17 -3 -3 -1 -12 5 -19
15 -18 5 -27 -30 -27 -19 0 -28 -5 -28 -16 0 -12 5 -14 18 -8 34 15 73 5 95
-23 12 -15 43 -52 70 -82 33 -38 44 -57 35 -62 -9 -6 -9 -12 3 -26 19 -21 51
-105 74 -188 9 -33 23 -81 32 -107 8 -26 17 -76 20 -110 3 -35 12 -74 21 -87
17 -28 42 -115 42 -148 0 -15 -13 -31 -40 -49 -44 -29 -53 -50 -17 -40 44 14
52 12 50 -12 -3 -29 4 -28 51 8 47 35 71 38 86 9 13 -24 15 -21 -27 -43 -37
-18 -79 -20 -142 -5 -27 6 -48 6 -53 1 -16 -16 -73 8 -94 39 -22 34 -27 35
-62 11 -24 -16 -40 -18 -140 -12 -123 6 -121 5 -149 75 -16 43 -16 112 1 118
7 3 35 8 62 12 27 3 66 13 87 22 34 15 39 15 55 0 25 -23 31 -21 42 8 6 15 17
25 29 25 11 0 23 5 26 10 4 6 -5 10 -20 10 -40 0 -26 20 41 61 121 74 65 103
-203 105 l-183 1 -36 42 c-39 44 -147 121 -170 121 -20 0 -17 -20 12 -84 54
-117 -4 -136 -191 -60 -132 53 -256 146 -267 201 -10 43 -38 82 -59 83 -9 0
-22 -13 -29 -30 -18 -44 -35 -54 -129 -71 -81 -15 -84 -16 -46 -22 22 -3 76
-9 120 -13 73 -6 81 -9 105 -37 14 -17 58 -63 97 -103 78 -77 94 -105 86 -147
-5 -27 -5 -27 51 -27 72 0 156 -42 233 -117 29 -29 66 -59 83 -68 30 -15 30
-17 30 -95 l0 -80 28 0 c15 0 33 5 39 11 7 7 18 9 25 7 7 -3 18 -6 23 -7 6 -2
27 -12 48 -24 33 -19 37 -25 35 -56 l-3 -35 155 0 c140 -1 159 -3 201 -23 49
-25 69 -29 69 -13 0 6 -10 10 -21 10 -18 0 -19 2 -9 15 7 8 27 15 44 15 17 1
74 10 126 21 52 11 113 22 135 25 51 7 74 17 162 73 61 39 74 51 79 79 11 58
-2 127 -30 157 -31 33 -31 29 -10 -41 18 -56 12 -102 -9 -74 -7 8 -24 21 -39
27 -38 17 -56 50 -62 113 -6 69 -20 124 -46 184 -11 26 -20 55 -20 65 0 9 -25
64 -56 121 -116 220 -243 518 -225 529 6 4 -2 24 -20 50 -32 48 -39 101 -14
101 9 0 18 -7 21 -15 9 -23 54 -19 54 5 0 25 19 26 26 3 3 -10 10 -26 15 -35
5 -10 13 -47 18 -83 6 -40 18 -75 31 -92 19 -24 20 -28 6 -31 -21 -5 -20 -12
9 -63 14 -24 25 -59 25 -76 l0 -33 -20 20 c-11 11 -20 22 -20 24 0 12 -32 77
-36 73 -10 -10 30 -104 63 -149 19 -27 32 -48 28 -48 -4 0 -3 -6 3 -12 5 -7
12 -29 15 -48 5 -37 36 -100 50 -100 4 0 5 10 3 23 -3 12 -12 69 -21 127 -9
58 -21 124 -26 147 -16 75 -11 119 17 152 30 35 21 41 -13 10 -20 -20 -23 -20
-29 -5 -4 10 1 24 10 35 9 10 14 25 10 34 -5 13 -8 13 -25 -4 -28 -28 -41 -23
-38 15 2 19 -2 40 -7 47 -18 22 -34 78 -27 95 8 21 27 12 31 -14 2 -14 11 -22
22 -22 10 0 31 -5 47 -12 15 -6 34 -10 41 -9 7 1 15 -5 18 -14 8 -19 30 -20
38 0 3 8 14 15 25 15 25 0 71 20 71 32 0 4 9 8 21 8 15 0 19 5 14 19 -4 13 0
20 16 24 28 7 38 2 49 -28 8 -22 12 -23 39 -12 17 6 31 16 31 22 0 12 62 75
74 75 4 0 4 -9 1 -20 -8 -24 -2 -25 30 -4 14 9 21 22 18 30 -3 8 0 14 6 14 6
0 11 -4 11 -10 0 -5 5 -10 10 -10 6 0 10 6 10 14 0 21 20 24 52 9 32 -16 48
-10 48 18 0 13 7 19 22 19 20 0 21 2 7 15 -8 8 -30 16 -49 18 -19 3 -35 9 -35
15 0 5 -15 29 -33 51 l-34 42 -19 -22 c-10 -12 -19 -26 -19 -31 0 -4 -9 -8
-21 -8 -15 0 -20 -5 -18 -22 6 -41 -10 -51 -37 -26 -28 27 -30 41 -9 58 23 19
18 38 -8 33 -14 -3 -29 2 -36 11 -8 9 -20 16 -27 16 -21 0 -17 19 9 41 l22 18
-22 1 c-12 0 -23 4 -25 9 -5 15 -63 18 -61 4 2 -7 -6 -13 -17 -13 -11 0 -20
-4 -20 -10 0 -19 -17 -10 -29 16 -11 25 -13 26 -25 9 -14 -20 -36 -13 -36 12
0 9 7 24 16 34 15 16 14 17 -5 12 -16 -4 -21 -1 -21 16 0 11 -3 20 -7 20 -5
-1 -14 -1 -22 0 -22 2 -2 16 22 16 13 0 26 9 32 23 14 31 39 29 31 -3 -6 -23
-5 -24 19 -13 19 9 28 9 37 0 7 -7 21 -12 33 -12 12 0 26 -5 33 -12 20 -20 23
-3 6 30 -17 36 -30 46 -59 47 -11 0 -21 8 -23 17 -4 22 41 35 73 20 26 -12 35
-7 35 20 0 21 -11 23 -28 6 -19 -19 -27 20 -8 41 21 23 20 31 -4 31 -34 0 -71
30 -65 51 4 13 1 19 -9 19 -9 0 -16 -4 -16 -10 0 -5 -5 -10 -11 -10 -8 0 -8 4
-1 13 17 20 -14 60 -39 52 -15 -5 -19 -1 -19 15 0 17 -3 19 -19 10 -11 -5 -31
-10 -45 -10 -21 0 -26 -5 -26 -24 0 -28 -24 -53 -35 -36 -4 7 -18 9 -31 6 -19
-5 -24 -2 -24 12 0 15 -6 18 -25 14 -20 -3 -25 0 -25 16 0 12 4 23 9 27 6 3 9
14 8 25 -1 14 -9 20 -24 20 -19 0 -23 5 -23 30 0 23 -5 30 -19 30 -10 0 -24 7
-31 15 -14 17 -5 50 11 39 12 -7 31 15 23 28 -3 4 -21 5 -40 2 -36 -6 -46 9
-21 35 9 10 7 10 -11 0 -17 -11 -24 -11 -30 -2 -4 6 -21 13 -37 15 -27 3 -30
0 -30 -27 0 -20 -5 -30 -15 -30 -10 0 -14 9 -13 28 2 27 0 28 -35 25 -32 -3
-37 -6 -34 -25 2 -16 -1 -21 -11 -17 -8 3 -25 -6 -38 -20 -30 -32 -41 -32 -54
-3 -6 12 -20 23 -32 25 -13 2 -23 10 -23 19 0 13 -3 13 -15 3 -11 -9 -18 -10
-28 -1 -8 6 -17 8 -20 4 -4 -3 -13 0 -21 6 -8 7 -20 10 -26 6 -7 -4 -14 2 -17
13 -3 13 -15 22 -31 24 -14 2 -30 12 -36 23 -6 11 -12 22 -13 24 -2 2 -9 -2
-18 -9 -13 -11 -19 -10 -35 5 -19 17 -20 17 -30 -9z m17 -426 c3 -11 13 -20
23 -20 20 0 34 -26 20 -35 -12 -7 -50 12 -50 25 0 6 -6 10 -14 10 -21 0 -31
21 -15 31 22 13 30 11 36 -11z m973 -159 c0 -24 -13 -33 -34 -25 -12 5 -13 10
-5 25 13 25 39 24 39 0z m-300 -102 c0 -6 7 -17 15 -25 9 -10 15 -11 15 -4 0
6 8 10 18 8 25 -5 21 -33 -5 -32 -17 0 -25 -8 -34 -33 -20 -61 -49 -34 -54 50
-2 26 3 40 14 46 17 10 31 5 31 -10z m230 -44 c0 -8 -9 -15 -20 -15 -13 0 -18
5 -14 15 4 8 12 15 20 15 8 0 14 -7 14 -15z m-60 -15 c0 -11 -7 -20 -15 -20
-8 0 -15 9 -15 20 0 11 7 20 15 20 8 0 15 -9 15 -20z m-102 -39 c2 -12 -2 -29
-8 -37 -10 -11 -10 -17 -1 -28 10 -11 8 -16 -5 -24 -35 -20 -52 67 -21 106 14
18 31 10 35 -17z m190 -1 c-1 -40 -15 -47 -41 -22 -17 17 -18 23 -7 36 7 9 21
16 31 16 13 0 17 -7 17 -30z m-310 -37 c5 -17 -26 -29 -40 -15 -6 6 -7 15 -3
22 9 14 37 9 43 -7z m530 -2 c3 -8 -1 -12 -9 -9 -7 2 -15 10 -17 17 -3 8 1 12
9 9 7 -2 15 -10 17 -17z m-730 -130 c3 -18 6 -20 17 -11 26 22 131 -78 107
-102 -12 -12 -57 10 -101 51 -18 17 -37 31 -41 31 -12 0 -23 38 -15 50 11 17
30 6 33 -19z m-74 0 c21 -23 12 -44 -15 -36 -10 4 -19 2 -19 -3 0 -15 -43 -23
-52 -9 -8 13 9 37 27 37 7 0 15 7 19 15 7 20 19 19 40 -4z m-214 -30 c0 -14
-18 -23 -30 -16 -6 4 -8 11 -5 16 8 12 35 12 35 0z m470 -32 c0 -5 -4 -9 -10
-9 -5 0 -10 7 -10 16 0 8 5 12 10 9 6 -3 10 -10 10 -16z m23 -55 c8 -8 -3 -34
-14 -34 -5 0 -9 9 -9 20 0 19 11 26 23 14z m317 -94 c0 -5 -2 -10 -4 -10 -3 0
-8 5 -11 10 -3 6 -1 10 4 10 6 0 11 -4 11 -10z m-652 -102 c-6 -18 -28 -21
-28 -4 0 9 7 16 16 16 9 0 14 -5 12 -12z m312 -434 c0 -8 6 -14 13 -14 6 0 30
-40 51 -88 22 -48 56 -112 76 -142 54 -80 72 -118 76 -164 2 -23 11 -55 19
-73 9 -19 13 -43 9 -58 -11 -45 -32 -28 -58 49 -9 27 -25 61 -34 75 -28 41
-91 185 -106 244 -16 62 -51 143 -66 152 -5 3 -10 18 -10 32 0 21 2 24 15 13
8 -7 15 -19 15 -26z m-613 -519 c9 -25 -2 -27 -22 -5 -17 18 -17 20 -1 20 9 0
19 -7 23 -15z m1033 -165 c27 -21 28 -21 -53 -25 -49 -3 -63 5 -53 30 8 22 76
19 106 -5z"/>
<path d="M826 3329 c-16 -16 -37 -29 -47 -29 -22 0 -59 -38 -59 -61 0 -10 11
-19 25 -23 14 -4 25 -13 25 -21 0 -8 5 -15 11 -15 6 0 17 -6 24 -14 16 -15 3
-40 -25 -48 -25 -8 114 -20 146 -13 69 16 68 15 44 37 -16 15 -21 28 -16 49 4
21 -2 35 -27 62 -18 19 -41 36 -51 38 -26 5 -30 23 -11 42 18 19 19 27 3 26
-7 0 -26 -14 -42 -30z"/>
<path d="M3472 3252 c-11 -7 -10 -10 3 -16 26 -10 85 -7 85 4 0 6 -8 10 -17
10 -10 0 -27 3 -38 5 -11 3 -26 1 -33 -3z"/>
<path d="M3631 3219 c-11 -12 -25 -47 -32 -78 -15 -71 -46 -139 -67 -145 -16
-5 -97 -9 -134 -7 -26 1 -52 48 -58 105 l-6 51 -13 -42 c-16 -48 -5 -88 36
-129 27 -27 29 -46 6 -80 -14 -22 -15 -31 -5 -57 10 -26 9 -37 -8 -72 -25 -52
-25 -57 3 -84 25 -23 29 -23 105 11 45 20 82 17 82 -8 0 -8 18 -34 40 -58 22
-24 40 -53 40 -64 0 -30 24 -50 162 -135 24 -15 27 -24 33 -103 6 -70 4 -93
-9 -121 -22 -45 -20 -53 9 -53 30 0 45 26 45 77 0 22 5 44 10 49 6 6 13 46 16
90 3 43 9 83 14 88 15 15 37 -1 44 -34 3 -18 17 -54 31 -82 14 -27 25 -64 25
-81 0 -66 12 -108 29 -105 21 4 25 88 7 148 -8 25 -17 78 -20 118 -6 72 -6 72
21 83 20 8 45 7 88 -1 132 -25 138 -25 214 15 l70 37 31 -28 c16 -16 30 -38
31 -49 0 -11 3 -14 6 -7 7 18 30 15 37 -5 6 -15 8 -15 16 -3 16 25 44 -2 52
-51 6 -34 2 -59 -18 -119 -14 -41 -32 -82 -40 -91 -21 -24 -17 -29 20 -29 39
0 46 7 52 53 2 19 15 65 30 103 14 38 28 77 31 87 22 71 94 -101 89 -213 -1
-31 2 -35 24 -35 24 0 25 3 25 60 -1 33 -6 103 -12 157 -11 88 -15 101 -55
159 -42 62 -43 66 -43 141 0 48 5 82 13 90 6 6 12 24 12 39 0 43 18 44 25 2
15 -91 85 -244 140 -306 34 -40 99 -65 111 -45 10 16 -28 59 -89 101 -31 21
-65 53 -77 72 -32 52 -60 143 -60 196 0 76 -34 153 -83 189 -37 27 -48 30
-118 30 -56 0 -89 -6 -124 -21 -83 -37 -201 -49 -435 -47 -184 3 -222 0 -263
-14 -59 -22 -187 -25 -187 -5 0 7 13 26 30 42 25 24 30 38 36 97 4 38 15 85
24 104 21 39 19 42 -9 13z"/>
<path d="M1307 3133 c-20 -16 -64 -46 -97 -67 -33 -21 -63 -43 -66 -48 -11
-18 30 -61 77 -81 42 -18 49 -25 49 -49 0 -25 3 -28 35 -28 32 0 35 2 35 30 0
28 3 30 36 30 21 0 47 -8 61 -20 14 -11 41 -20 59 -20 35 0 35 0 38 60 1 34
25 36 85 6 78 -40 81 -38 81 49 0 46 -4 75 -11 75 -5 0 -30 -11 -55 -25 -47
-26 -98 -33 -110 -13 -4 6 0 16 9 23 39 29 3 75 -59 75 -21 1 -50 7 -64 15
-37 21 -63 18 -103 -12z"/>
<path d="M733 3005 c2 -25 12 -54 21 -64 9 -10 16 -31 16 -47 1 -39 15 -63 77
-127 43 -45 61 -56 107 -66 31 -7 58 -16 61 -21 3 -4 -5 -21 -18 -37 -13 -15
-33 -43 -46 -61 l-23 -32 35 20 c20 12 38 27 41 35 6 16 36 21 36 6 0 -6 -11
-22 -25 -37 -49 -53 -67 -93 -72 -157 -9 -143 70 -121 180 51 15 23 27 51 27
61 0 10 7 25 16 32 15 13 16 8 10 -56 l-6 -70 19 35 c11 19 20 43 21 53 0 32
30 31 64 -2 22 -21 54 -37 104 -51 86 -24 125 -25 142 -5 8 10 31 15 69 15 33
0 65 6 76 14 17 12 18 17 6 39 -18 33 -69 53 -195 77 -202 39 -226 47 -226 78
0 9 -7 35 -14 57 -14 40 -29 47 -76 34 -12 -3 -15 6 -15 40 0 24 -5 46 -11 48
-7 2 -12 -2 -11 -9 0 -7 -1 -32 -1 -55 -4 -85 -47 -55 -220 154 -52 63 -98 93
-142 93 l-33 0 6 -45z"/>
<path d="M1313 2761 c1 -4 -9 -18 -23 -29 -39 -33 -17 -26 25 8 32 26 35 30
16 30 -11 0 -20 -4 -18 -9z"/>
<path d="M2118 2463 c6 -2 18 -2 25 0 6 3 1 5 -13 5 -14 0 -19 -2 -12 -5z"/>
<path d="M1530 2378 c-1 -7 -15 -22 -33 -33 -19 -12 -42 -41 -57 -72 -38 -80
-46 -84 -157 -95 -54 -5 -108 -6 -121 -3 -12 3 -47 27 -76 54 -65 59 -94 71
-113 45 -18 -24 -17 -73 2 -80 9 -4 15 -19 15 -39 0 -24 7 -39 26 -54 14 -11
23 -24 20 -29 -3 -6 1 -15 9 -22 8 -7 15 -18 15 -24 0 -6 10 -16 22 -21 12 -6
26 -23 31 -40 17 -55 53 -93 95 -100 37 -6 82 -47 82 -75 0 -5 7 -10 15 -10
14 0 17 -4 19 -32 1 -17 35 -37 63 -38 32 0 34 23 1 37 -36 15 -36 34 0 29 15
-2 20 -1 12 1 -8 3 -22 11 -31 19 -9 8 -19 11 -22 7 -4 -3 -7 -2 -7 4 0 6 7
14 16 17 10 4 13 13 9 25 -11 35 11 66 66 93 67 33 114 81 127 130 6 20 8 72
5 115 -5 70 -3 80 17 101 11 12 26 20 32 16 6 -4 8 2 3 17 -13 45 -84 92 -85
57z"/>
<path d="M4283 2357 c-3 -5 -13 -7 -23 -4 -18 5 -60 -40 -60 -62 0 -20 49 -43
76 -37 14 4 32 2 39 -4 9 -8 14 -6 19 5 3 8 14 15 25 15 29 0 45 70 19 86 -16
10 -89 11 -95 1z"/>
<path d="M3330 2200 c0 -11 5 -20 10 -20 6 0 10 9 10 20 0 11 -4 20 -10 20 -5
0 -10 -9 -10 -20z"/>
<path d="M3419 2198 c-7 -13 -16 -17 -30 -13 -15 5 -19 2 -19 -18 0 -22 5 -25
43 -29 31 -4 46 0 59 13 10 10 26 15 36 12 26 -6 36 11 22 37 -8 16 -15 19
-24 11 -7 -6 -15 -8 -19 -5 -15 15 -58 10 -68 -8z"/>
<path d="M1643 2179 c3 -19 14 -59 25 -90 24 -69 31 -135 14 -131 -7 1 -12 -3
-12 -9 0 -6 -8 -8 -19 -4 -26 8 -48 -20 -31 -40 7 -9 19 -14 27 -11 18 7 53
-15 53 -34 0 -21 -35 -130 -53 -164 -15 -27 -13 -56 2 -56 21 0 72 81 85 133
12 49 25 28 28 -45 2 -41 8 -73 14 -75 18 -6 46 75 51 148 l5 66 -33 12 c-31
11 -33 13 -16 26 12 8 14 15 8 20 -17 10 -13 19 12 30 19 9 22 17 22 70 -1 64
-22 150 -42 166 -21 18 -36 -28 -28 -87 5 -45 4 -54 -9 -54 -10 0 -16 9 -16
23 0 27 -59 129 -79 135 -10 3 -12 -4 -8 -29z"/>
<path d="M3230 2199 c0 -5 5 -7 10 -4 6 3 10 8 10 11 0 2 -4 4 -10 4 -5 0 -10
-5 -10 -11z"/>
<path d="M3194 2175 c-18 -20 -19 -25 -6 -30 17 -6 32 11 32 38 0 22 -1 22
-26 -8z"/>
<path d="M2408 2183 c7 -3 16 -2 19 1 4 3 -2 6 -13 5 -11 0 -14 -3 -6 -6z"/>
<path d="M2485 2180 c-8 -13 29 -74 61 -99 26 -21 31 -37 12 -44 -9 -4 -8 -6
3 -6 16 -1 62 -45 73 -71 3 -8 4 0 1 19 -3 21 -21 51 -45 77 -22 24 -53 65
-69 90 -17 25 -32 40 -36 34z"/>
<path d="M3140 2139 c0 -5 5 -7 10 -4 6 3 10 8 10 11 0 2 -4 4 -10 4 -5 0 -10
-5 -10 -11z"/>
<path d="M3271 2128 c-35 -16 -49 -18 -63 -9 -14 8 -18 8 -18 -1 0 -6 -8 -20
-17 -31 -17 -20 -17 -20 2 -13 43 17 57 18 65 6 6 -9 20 -2 51 28 49 46 45 50
-20 20z"/>
<path d="M3060 2111 c0 -16 -7 -36 -15 -45 -9 -9 -11 -17 -5 -21 5 -3 11 -3
11 2 3 20 18 -77 18 -119 1 -63 -19 -150 -38 -166 -10 -8 -14 -25 -12 -50 4
-55 18 -60 26 -10 4 23 18 58 32 76 13 17 19 32 14 32 -14 0 -14 57 0 66 6 3
8 17 4 32 -5 19 1 32 27 60 l33 35 -32 -21 c-40 -28 -43 -28 -43 7 0 23 8 34
35 51 45 28 45 34 0 13 -41 -20 -53 -12 -36 21 10 18 10 29 2 45 -16 29 -21
26 -21 -8z"/>
<path d="M4250 2111 c-5 -11 -23 -27 -38 -36 -15 -9 -47 -43 -70 -75 -24 -32
-50 -64 -58 -71 -10 -8 -76 -11 -238 -10 -322 2 -335 -6 -435 -263 -37 -93
-54 -186 -35 -186 4 0 26 12 49 26 58 37 97 110 104 194 5 51 10 65 24 68 12
3 17 -3 17 -22 0 -14 7 -41 16 -60 23 -47 12 -97 -28 -131 l-32 -27 12 -70 c7
-39 21 -83 32 -98 21 -30 68 -54 96 -48 28 5 27 25 0 32 -24 6 -45 39 -69 109
-10 27 15 67 70 113 27 23 60 58 73 78 28 41 34 42 104 21 28 -8 79 -20 112
-26 l62 -13 6 -44 c3 -25 6 -69 6 -98 0 -31 8 -71 19 -96 11 -24 22 -51 25
-60 5 -18 39 -24 70 -12 12 5 9 11 -15 32 l-31 26 7 105 c8 123 14 142 48 160
14 7 31 25 38 40 8 14 27 40 42 56 36 37 73 109 82 158 9 45 14 49 70 51 40 1
75 18 75 37 0 5 -21 20 -47 33 -49 25 -103 83 -103 110 0 23 -47 20 -60 -3z"/>
<path d="M3666 2111 c-5 -7 -15 -10 -24 -6 -8 3 -19 0 -23 -7 -7 -10 -11 -10
-21 0 -18 18 -26 15 -30 -13 -2 -14 -7 -25 -13 -24 -5 1 -9 10 -7 21 5 26 -17
22 -29 -6 -7 -14 -17 -22 -24 -20 -13 6 -58 -49 -49 -59 3 -3 19 -1 36 5 25 9
33 7 50 -10 19 -19 23 -19 44 -6 28 19 72 24 101 13 13 -5 25 -4 28 2 4 5 12
9 18 8 21 -4 107 13 112 22 10 16 -34 29 -75 23 -36 -6 -43 -4 -58 17 -9 13
-20 30 -23 38 -4 11 -7 12 -13 2z"/>
<path d="M4640 2081 c0 -31 4 -38 18 -37 36 2 57 58 26 70 -35 13 -44 7 -44
-33z"/>
<path d="M4567 2098 c-35 -19 -9 -89 28 -74 19 7 20 72 2 79 -7 3 -21 1 -30
-5z"/>
<path d="M3210 2060 c-9 -6 -10 -10 -3 -10 6 0 15 5 18 10 8 12 4 12 -15 0z"/>
<path d="M4711 2051 c-25 -22 -26 -28 -7 -47 33 -32 82 -8 64 32 -15 31 -32
36 -57 15z"/>
<path d="M2480 2050 c20 -13 33 -13 25 0 -3 6 -14 10 -23 10 -15 0 -15 -2 -2
-10z"/>
<path d="M2810 2011 c0 -31 6 -37 27 -23 8 5 6 14 -8 31 l-19 23 0 -31z"/>
<path d="M2490 2005 c0 -4 11 -16 25 -27 14 -11 25 -23 25 -28 0 -22 51 -118
65 -124 13 -5 14 -2 4 17 -6 12 -18 30 -27 39 -8 10 -13 25 -10 35 2 12 -11
32 -39 57 -24 21 -43 35 -43 31z"/>
<path d="M4510 1976 c0 -41 24 -54 51 -30 11 10 19 21 19 25 0 15 -32 39 -51
39 -15 0 -19 -7 -19 -34z"/>
<path d="M4620 1995 c-26 -31 13 -82 44 -56 19 16 21 42 4 59 -16 16 -33 15
-48 -3z"/>
<path d="M3605 1960 c-3 -6 1 -7 9 -4 18 7 21 14 7 14 -6 0 -13 -4 -16 -10z"/>
<path d="M4706 1945 c-6 -17 12 -52 31 -59 6 -3 19 6 28 20 13 20 14 28 4 40
-15 19 -55 18 -63 -1z"/>
<path d="M2262 1920 c0 -14 2 -19 5 -12 2 6 2 18 0 25 -3 6 -5 1 -5 -13z"/>
<path d="M1875 1920 c-41 -5 -32 -7 55 -11 58 -3 111 -3 119 1 34 18 -61 23
-174 10z"/>
<path d="M4552 1911 c-18 -11 -12 -41 10 -54 22 -14 48 7 48 39 0 18 -5 24
-22 24 -13 0 -29 -4 -36 -9z"/>
<path d="M4653 1902 c-6 -4 -15 -20 -19 -36 -8 -35 9 -49 43 -33 26 11 29 33
9 60 -15 19 -16 20 -33 9z"/>
<path d="M2280 1870 c0 -5 5 -10 10 -10 6 0 10 5 10 10 0 6 -4 10 -10 10 -5 0
-10 -4 -10 -10z"/>
<path d="M1906 1838 c-3 -7 -9 -28 -15 -45 -6 -20 -6 -35 0 -38 15 -10 29 5
29 31 0 24 21 41 38 30 4 -2 5 -31 2 -63 -4 -32 -3 -71 3 -86 13 -39 72 -67
142 -67 77 0 107 17 137 78 15 29 15 35 0 65 -8 17 -24 38 -33 45 -10 7 -24
19 -32 26 -8 8 -19 11 -28 6 -8 -4 -38 -13 -67 -20 -28 -6 -55 -16 -58 -21 -8
-14 -24 -11 -24 6 0 8 -5 26 -12 40 -9 19 -19 25 -45 25 -18 0 -35 -6 -37 -12z
m243 -110 c20 -40 20 -44 4 -55 -54 -40 -161 33 -110 75 11 9 37 16 73 21 7 0
21 -18 33 -41z m41 11 c7 -11 9 -23 6 -26 -7 -7 -24 5 -36 28 -8 15 -7 19 4
19 9 0 20 -9 26 -21z"/>
<path d="M3128 1836 c-24 -18 -23 -25 2 -19 11 3 20 12 20 19 0 17 0 17 -22 0z"/>
<path d="M3384 1817 c-23 -17 -52 -46 -64 -64 -12 -18 -37 -41 -56 -52 -19
-11 -34 -25 -34 -31 0 -11 59 26 72 45 4 6 35 38 70 73 34 34 60 62 58 62 -3
0 -24 -15 -46 -33z"/>
<path d="M4505 1777 c-26 -16 -115 -78 -138 -97 -30 -24 -106 -125 -117 -156
-18 -46 -5 -74 33 -74 47 0 107 43 175 125 20 24 72 138 72 158 0 10 5 27 10
38 13 22 -3 25 -35 6z"/>
<path d="M2530 1759 c-22 -6 -20 -7 13 -8 38 -1 47 3 25 11 -7 3 -24 1 -38 -3z"/>
<path d="M2297 1683 c-4 -3 -7 -27 -7 -51 0 -29 -6 -53 -17 -66 -18 -21 -18
-21 3 -3 38 32 54 23 54 -32 0 -49 14 -80 17 -38 5 67 30 87 44 36 5 -16 7
-18 8 -6 1 21 24 22 42 1 23 -28 159 -6 159 26 0 4 -18 15 -40 25 -22 10 -40
22 -40 26 0 4 16 20 35 35 19 14 35 33 35 41 0 11 -9 8 -35 -11 -33 -26 -35
-26 -35 -7 0 27 -22 27 -45 1 -24 -27 -64 -25 -121 5 -54 29 -49 27 -57 18z"/>
<path d="M3186 1618 c-9 -12 -16 -28 -16 -35 0 -25 -59 -76 -89 -76 l-28 0 10
-51 c10 -60 17 -71 17 -29 0 23 12 42 49 79 29 29 56 68 64 92 17 48 15 52 -7
20z"/>
<path d="M3234 1578 c-31 -60 -55 -142 -48 -170 11 -53 76 -75 123 -42 21 15
23 22 18 78 -5 61 -48 166 -67 166 -5 0 -17 -14 -26 -32z"/>
<path d="M4830 1383 c-39 -13 -60 -28 -60 -45 0 -24 17 -23 25 1 3 10 19 21
35 25 17 3 30 10 30 16 0 11 -6 11 -30 3z"/>
<path d="M5000 1370 c0 -5 5 -10 11 -10 5 0 7 5 4 10 -3 6 -8 10 -11 10 -2 0
-4 -4 -4 -10z"/>
<path d="M1071 1341 c-7 -5 -32 -9 -55 -9 -24 -1 -54 -5 -68 -11 -14 -5 -31
-9 -39 -9 -40 3 -59 -3 -59 -18 0 -10 6 -14 14 -11 7 3 35 9 62 12 27 4 57 12
68 17 10 6 51 11 90 12 39 2 95 3 124 4 28 1 52 7 52 12 0 12 -169 13 -189 1z"/>
<path d="M1300 1340 c0 -5 9 -10 20 -10 11 0 20 5 20 10 0 6 -9 10 -20 10 -11
0 -20 -4 -20 -10z"/>
<path d="M4733 1325 c-17 -19 -16 -25 2 -25 8 0 15 9 15 20 0 23 -1 24 -17 5z"/>
<path d="M4903 1278 c-37 -32 -67 -65 -148 -157 -22 -25 -47 -52 -57 -58 -9
-7 -36 -31 -60 -54 -23 -23 -68 -59 -98 -82 -30 -22 -62 -50 -70 -61 -8 -12
-27 -34 -42 -50 -15 -15 -30 -38 -34 -50 -3 -11 -19 -33 -34 -47 -15 -14 -33
-36 -40 -50 -7 -13 -22 -31 -34 -39 -11 -8 -45 -36 -76 -63 -69 -60 -78 -67
-85 -67 -4 0 -25 -15 -48 -34 -23 -18 -53 -37 -66 -41 -13 -4 -42 -24 -65 -44
-43 -39 -215 -131 -244 -131 -10 0 -36 -9 -57 -20 -40 -20 -151 -30 -174 -15
-17 10 -13 22 9 28 11 3 20 11 20 19 0 7 8 18 18 23 10 6 41 25 68 43 27 18
67 38 89 44 22 6 47 18 56 25 9 7 23 11 32 8 10 -4 37 15 80 57 193 186 288
272 409 369 36 29 111 69 128 69 6 0 31 21 55 47 33 34 47 59 55 97 6 28 17
61 26 73 19 30 14 29 -48 -11 -29 -18 -72 -37 -95 -40 -23 -4 -44 -14 -47 -21
-4 -12 -75 -55 -91 -55 -19 0 2 34 43 68 33 29 44 44 36 51 -18 19 -76 -9
-129 -64 -57 -58 -180 -140 -309 -205 -55 -28 -110 -65 -142 -96 -38 -37 -76
-61 -131 -84 -43 -18 -101 -46 -129 -61 -28 -16 -56 -29 -63 -29 -7 0 -45 -21
-85 -48 -93 -62 -270 -132 -333 -132 -11 0 -40 -7 -64 -15 -106 -38 -329 -66
-354 -45 -5 5 -28 2 -50 -6 -22 -7 -56 -14 -75 -14 -19 0 -49 -4 -67 -9 -27
-8 -34 -6 -51 16 -19 23 -21 24 -49 9 -21 -10 -40 -12 -66 -7 -20 5 -38 7 -40
4 -7 -7 -240 28 -260 39 -13 7 -39 6 -83 -2 -36 -7 -82 -10 -102 -6 -28 4 -48
0 -77 -15 -30 -16 -43 -18 -61 -11 -13 6 -34 7 -51 3 -19 -6 -36 -3 -56 8 -20
11 -30 13 -35 4 -11 -17 -33 -18 -73 -5 -26 9 -44 10 -64 2 -35 -13 -126 3
-173 32 -30 19 -34 19 -51 4 -25 -23 -46 -20 -65 8 -11 18 -25 25 -48 25 -18
0 -50 3 -70 6 -31 6 -38 4 -38 -9 0 -9 -4 -16 -10 -16 -5 0 -10 3 -10 8 0 4
-24 7 -52 7 -47 0 -53 -3 -56 -22 -4 -29 -24 -34 -58 -17 -26 14 -29 13 -48
-10 -30 -36 -66 -42 -98 -17 -31 25 -83 28 -92 6 -3 -8 -14 -15 -24 -15 -10 0
-25 -11 -32 -25 -7 -14 -16 -25 -19 -25 -8 0 -51 67 -51 79 0 5 -7 12 -15 15
-26 10 -28 -21 -6 -67 12 -24 21 -53 21 -65 0 -12 6 -32 13 -43 10 -18 9 -23
-11 -40 -13 -10 -41 -24 -62 -30 -39 -12 -111 -64 -108 -77 1 -4 -3 -17 -10
-30 l-13 -22 2018 1 2018 0 75 55 c41 29 91 63 110 74 19 11 49 29 65 40 17
11 55 32 85 47 64 32 190 113 190 122 0 14 59 39 130 55 91 20 216 81 244 118
l20 28 -21 22 c-21 23 -21 48 0 48 7 0 47 23 90 50 43 28 80 50 83 50 2 0 23
9 47 19 23 11 59 26 79 35 47 19 138 103 138 127 0 10 -9 21 -20 24 -11 3 -20
13 -20 20 0 27 -56 73 -108 90 -89 29 -172 18 -273 -34 -123 -64 -259 -144
-318 -186 -56 -40 -141 -61 -141 -34 0 13 223 234 352 349 88 77 149 150 146
170 -5 26 -43 23 -58 -5 -8 -14 -22 -25 -34 -25 -14 0 -29 -14 -45 -43 -24
-41 -44 -60 -89 -84 -21 -12 -23 -11 -16 10 10 32 40 73 77 101 18 14 27 26
20 26 -6 0 -9 9 -6 20 8 31 -21 25 -64 -12z m484 -295 c13 -20 12 -21 -27 -28
-22 -4 -46 -12 -53 -19 -11 -11 -109 -56 -121 -56 -3 0 -6 7 -6 15 0 8 7 15
16 15 8 0 12 5 9 10 -3 6 3 10 14 10 11 0 23 5 26 10 3 6 19 10 36 10 16 0 29
5 29 10 0 6 -6 10 -14 10 -8 0 -14 8 -13 19 2 28 84 24 104 -6z m-237 -107 c0
-2 -8 -10 -17 -17 -16 -13 -17 -12 -4 4 13 16 21 21 21 13z m-40 -20 c0 -3 -4
-8 -10 -11 -5 -3 -10 -1 -10 4 0 6 5 11 10 11 6 0 10 -2 10 -4z m230 -16 c0
-5 -4 -10 -10 -10 -5 0 -10 5 -10 10 0 6 5 10 10 10 6 0 10 -4 10 -10z"/>
<path d="M4662 1267 c-18 -18 -32 -39 -32 -47 0 -10 5 -8 19 6 10 10 28 27 40
36 21 18 28 38 13 38 -4 0 -22 -15 -40 -33z"/>
<path d="M792 1278 c7 -19 38 -22 38 -4 0 10 -9 16 -21 16 -12 0 -19 -5 -17
-12z"/>
<path d="M740 1254 c0 -17 22 -14 28 4 2 7 -3 12 -12 12 -9 0 -16 -7 -16 -16z"/>
<path d="M690 1241 c-45 -12 -100 -44 -106 -63 -3 -10 -12 -18 -20 -18 -19 0
-59 -25 -107 -67 -20 -18 -40 -33 -45 -33 -4 0 -29 -21 -57 -46 -27 -25 -99
-88 -160 -139 -60 -51 -129 -110 -153 -131 l-43 -39 3 -125 3 -125 20 32 c20
34 40 42 47 21 8 -23 30 4 24 28 -7 28 10 104 24 104 14 0 55 -59 81 -118 13
-28 28 -51 34 -49 11 4 8 56 -5 72 -4 6 -14 45 -20 88 -14 86 -4 141 32 173
10 10 18 21 18 26 0 10 111 118 122 118 4 0 24 11 44 25 20 14 45 25 54 25 10
0 23 7 30 15 7 8 19 15 28 15 8 0 40 12 69 26 30 14 62 23 70 20 19 -8 63 3
63 15 0 14 -43 28 -55 18 -14 -13 -37 -11 -32 4 2 6 0 22 -4 35 -7 18 -4 28
16 48 13 13 31 24 40 24 8 0 15 7 15 15 0 8 -1 14 -2 14 -2 -1 -14 -4 -28 -8z
m-90 -139 c0 -5 -9 -17 -20 -27 -19 -18 -20 -17 -20 2 0 11 3 23 7 26 9 10 33
9 33 -1z"/>
<path d="M4593 1209 c-13 -5 -23 -15 -23 -23 0 -8 -6 -16 -12 -19 -7 -2 -11
-7 -8 -10 3 -3 20 8 38 25 37 33 38 40 5 27z"/>
<path d="M4350 1147 c0 -8 7 -18 16 -21 11 -4 14 -1 12 11 -4 21 -28 30 -28
10z"/>
<path d="M2538 1103 c7 -3 16 -2 19 1 4 3 -2 6 -13 5 -11 0 -14 -3 -6 -6z"/>
<path d="M1000 1070 c0 -5 9 -10 19 -10 11 0 21 -5 23 -11 7 -21 313 -117 398
-126 l45 -4 -24 20 c-32 24 -144 71 -174 71 -12 0 -47 12 -77 26 -35 17 -76
28 -113 30 -33 1 -61 5 -65 8 -9 10 -32 7 -32 -4z"/>
<path d="M3950 1070 c0 -5 -7 -10 -15 -10 -8 0 -15 -4 -15 -10 0 -15 12 -12
40 10 20 16 22 20 8 20 -10 0 -18 -4 -18 -10z"/>
<path d="M3770 954 c-14 -8 -38 -19 -55 -26 -26 -10 -27 -12 -10 -16 11 -2 26
-9 33 -15 9 -7 17 -6 26 4 11 12 39 71 33 68 -1 0 -13 -7 -27 -15z"/>
<path d="M3550 859 c0 -5 5 -7 10 -4 6 3 10 8 10 11 0 2 -4 4 -10 4 -5 0 -10
-5 -10 -11z"/>
<path d="M3423 778 c-13 -22 -51 -38 -86 -38 -47 0 -51 -8 -16 -37 30 -26 59
-25 59 2 0 8 15 28 32 44 18 16 30 32 26 36 -3 4 -10 1 -15 -7z"/>
<path d="M2100 749 c0 -5 5 -7 10 -4 6 3 10 8 10 11 0 2 -4 4 -10 4 -5 0 -10
-5 -10 -11z"/>
<path d="M2178 715 c-15 -34 -7 -39 39 -25 53 17 61 28 29 40 -41 15 -55 12
-68 -15z"/>
<path d="M2986 672 c-10 -16 6 -52 24 -52 9 0 25 8 34 19 16 17 16 19 -1 24
-10 2 -25 8 -34 12 -10 3 -19 2 -23 -3z"/>
</g>
</svg>
